<svg xmlns="http://www.w3.org/2000/svg" width="274.718" height="64.962" viewBox="0 0 274.718 64.962">
  <g id="グループ_66" data-name="グループ 66" transform="translate(-414.51 -1301.001)">
    <path id="パス_30" data-name="パス 30" d="M447.39,1305.642H433.47l-12.14,37.905,38.225-.083Zm-14.16,34.8,1.76-6.48c1.76-6.16,3.52-12.881,5.04-19.36h.32c1.76,6.4,3.36,13.2,5.2,19.36l1.761,6.48Z" fill="#48d900"/>
    <path id="パス_31" data-name="パス 31" d="M421.33,1343.547l-6.82,21.3h12l4.16-15.2h19.2l4.16,15.2h12.4l-6.876-21.379Z" fill="#fff"/>
    <path id="パス_32" data-name="パス 32" d="M493.709,1333.242c3.121-3.12,5.84-4.64,8.88-4.64,6.161,0,8.881,4.72,8.881,13.28,0,.506-.018.989-.04,1.468l12.057-.027c.025-.557.063-1.1.063-1.681,0-13.68-6.64-22.72-17.68-22.72-4.4,0-8.881,2.159-12.4,5.359l.24-7.2V1301h-11.68v42.413l11.68-.025Z" fill="#48d900"/>
    <path id="パス_33" data-name="パス 33" d="M511.43,1343.35c-.4,8.753-4.4,12.932-9.56,12.932a12.387,12.387,0,0,1-8.161-3.36v-9.533l-11.68.025v21.429h9.2l1.041-4.721h.239c3.68,3.761,8,5.841,12,5.841,9.473,0,18.328-8.249,18.977-22.64Z" fill="#fff"/>
    <path id="パス_34" data-name="パス 34" d="M552.349,1342.522c0-8.48,3.44-14,9.52-14s9.52,5.521,9.52,14c0,.238-.012.464-.018.7l12-.026c.005-.223.015-.443.015-.67,0-14.96-10.321-23.6-21.521-23.6s-21.52,8.64-21.52,23.6c0,.259.01.51.016.764l12-.026C552.362,1343.014,552.349,1342.774,552.349,1342.522Z" fill="#48d900"/>
    <path id="パス_35" data-name="パス 35" d="M571.371,1343.218c-.188,8-3.594,13.144-9.5,13.144s-9.3-5.128-9.5-13.1l-12,.026c.351,14.33,10.5,22.677,21.5,22.677,11.029,0,21.2-8.383,21.506-22.771Z" fill="#fff"/>
    <path id="パス_36" data-name="パス 36" d="M629.468,1343.091v7.191c-3.04,4-5.441,5.6-9.12,5.6-4.321,0-6.241-2.4-6.241-9.361v-3.4l-11.759.025v4.892c0,11.2,4.159,17.921,13.759,17.921,6.161,0,10.481-2.96,14.321-7.521h.32l.88,6.4h9.6v-21.778Z" fill="#fff"/>
    <path id="パス_37" data-name="パス 37" d="M614.107,1320.042h-11.76v23.108l11.76-.026Z" fill="#48d900"/>
    <path id="パス_38" data-name="パス 38" d="M641.229,1320.042H629.468v23.049l11.761-.026Z" fill="#48d900"/>
    <path id="パス_39" data-name="パス 39" d="M682.907,1356.683c-4,0-6.08-2.4-6.08-7.521v-6.175l-11.761.026v6.149c0,10.08,4.08,16.8,14.721,16.8a28.934,28.934,0,0,0,9.441-1.681l-1.921-8.559A13.113,13.113,0,0,1,682.907,1356.683Z" fill="#fff"/>
    <path id="パス_40" data-name="パス 40" d="M676.827,1329.321h11.04v-9.279h-11.04v-12h-9.841l-1.359,12-6.881.56v8.72h6.32v13.692l11.761-.026Z" fill="#48d900"/>
  </g>
</svg>
