<svg xmlns="http://www.w3.org/2000/svg" width="374.236" height="65.922" viewBox="0 0 374.236 65.922">
  <g id="グループ_50" data-name="グループ 50" transform="translate(-767.787 -1284.273)">
    <path id="パス_41" data-name="パス 41" d="M767.787,1349.075h11.841V1331.2l-11.841.032Z" fill="#fff"/>
    <path id="パス_42" data-name="パス 42" d="M790.309,1331.17l9.72,17.9h13.2l-10.242-17.939Z" fill="#fff"/>
    <path id="パス_43" data-name="パス 43" d="M799.388,1324.834c6.8-2.64,11.28-8.16,11.28-17.04,0-13.6-9.84-17.92-22.24-17.92H767.787v41.357l11.841-.032v-4.524h8.24l2.441,4.495,12.677-.034Zm-12.08-7.52h-7.68v-18.081h7.68c7.6,0,11.76,2.161,11.76,8.561C799.068,1314.114,794.908,1317.314,787.308,1317.314Z" fill="#0cb7f0"/>
    <path id="パス_44" data-name="パス 44" d="M852.027,1341.154c-6.3,0-10.943-3.467-12.219-10.117l-11.319.03c1.723,12.093,10.732,19.128,21.939,19.128a28.257,28.257,0,0,0,15.679-4.96l-4-7.2A18.464,18.464,0,0,1,852.027,1341.154Z" fill="#fff"/>
    <path id="パス_45" data-name="パス 45" d="M839.627,1329.954h27.6a21.848,21.848,0,0,0,.56-5.359c0-12.4-6.4-21.441-18.721-21.441-10.72,0-20.88,9.04-20.88,23.6a30.491,30.491,0,0,0,.3,4.312l11.319-.03C839.741,1330.683,839.675,1330.326,839.627,1329.954Zm9.6-17.68c5.759,0,8.479,3.84,8.479,9.92h-18.24C840.347,1315.634,844.507,1312.274,849.228,1312.274Z" fill="#0cb7f0"/>
    <path id="パス_46" data-name="パス 46" d="M900.267,1326.595l-6.56-22.321H881.866l9.081,26.624,10.435-.028C901,1329.429,900.624,1328,900.267,1326.595Z" fill="#0cb7f0"/>
    <path id="パス_47" data-name="パス 47" d="M925.707,1304.274h-11.28l-6.56,22.321c-.381,1.4-.77,2.825-1.16,4.261l10.133-.028Z" fill="#0cb7f0"/>
    <path id="パス_48" data-name="パス 48" d="M906.707,1330.856c-.837,3.084-1.676,6.227-2.44,9.338h-.4c-.817-3.106-1.669-6.245-2.485-9.324l-10.435.028,6.2,18.177h13.6l6.093-18.247Z" fill="#fff"/>
    <path id="パス_49" data-name="パス 49" d="M948.665,1297.074c4,0,6.96-2.72,6.96-6.4,0-3.84-2.96-6.4-6.96-6.4-4.08,0-7.04,2.561-7.04,6.4C941.625,1294.354,944.585,1297.074,948.665,1297.074Z" fill="#0cb7f0"/>
    <path id="パス_50" data-name="パス 50" d="M954.426,1304.274H942.745v26.484l11.681-.032Z" fill="#0cb7f0"/>
    <path id="パス_51" data-name="パス 51" d="M942.745,1330.759v18.317h11.681v-18.348Z" fill="#fff"/>
    <path id="パス_52" data-name="パス 52" d="M985.3,1329.954h27.6a21.788,21.788,0,0,0,.561-5.359c0-12.4-6.4-21.441-18.721-21.441-10.72,0-20.88,9.04-20.88,23.6a30.941,30.941,0,0,0,.245,3.919l11.311-.031C985.381,1330.414,985.336,1330.191,985.3,1329.954Zm9.6-17.68c5.761,0,8.481,3.84,8.481,9.92h-18.24C986.024,1315.634,990.185,1312.274,994.9,1312.274Z" fill="#0cb7f0"/>
    <path id="パス_53" data-name="パス 53" d="M997.705,1341.154c-6.427,0-11.119-3.607-12.285-10.511l-11.311.031c1.581,12.335,10.667,19.521,21.995,19.521a28.26,28.26,0,0,0,15.681-4.96l-4-7.2A18.458,18.458,0,0,1,997.705,1341.154Z" fill="#fff"/>
    <path id="パス_54" data-name="パス 54" d="M1045.224,1326.435l-4.881-22.161h-11.76l6.793,26.234,10.59-.029C1045.737,1329.13,1045.5,1327.782,1045.224,1326.435Z" fill="#0cb7f0"/>
    <path id="パス_55" data-name="パス 55" d="M1047.783,1339.475h-.32c-.551-3.029-.991-6.017-1.5-9l-10.59.029,4.808,18.567h13.439l4.352-18.628-8.357.023C1048.96,1333.438,1048.387,1336.454,1047.783,1339.475Z" fill="#fff"/>
    <path id="パス_56" data-name="パス 56" d="M1072.023,1326.435l-5.6-22.161h-10.481l-5.36,22.161c-.351,1.329-.664,2.678-.965,4.035l8.357-.023.209-.892c.96-4.16,1.6-8.321,2.48-13.04h.4c.88,4.719,1.6,8.8,2.561,13.04l.212.876,9.084-.024C1072.635,1329.081,1072.342,1327.758,1072.023,1326.435Z" fill="#0cb7f0"/>
    <path id="パス_57" data-name="パス 57" d="M1076.735,1330.4c-.511,3.006-.955,6.022-1.511,9.079h-.4c-.666-3.053-1.258-6.066-1.9-9.068l-9.084.024,4.508,18.644h13.841l4.609-18.706Z" fill="#fff"/>
    <path id="パス_58" data-name="パス 58" d="M1093.225,1304.274h-10.881l-4.88,22.161c-.269,1.319-.5,2.64-.729,3.961l10.059-.027Z" fill="#0cb7f0"/>
    <path id="パス_59" data-name="パス 59" d="M1129.543,1322.515c-4.72-1.761-9.12-2.96-9.12-6.241,0-2.56,1.92-4.32,5.92-4.32,3.36,0,6.48,1.6,9.68,3.84l5.281-7.12a25.081,25.081,0,0,0-15.281-5.52c-10.081,0-16.64,5.68-16.64,13.76,0,7.44,6.559,10.881,12.24,13.04l.823.319,18.183-.049C1138.392,1326.128,1133.808,1324.129,1129.543,1322.515Z" fill="#0cb7f0"/>
    <path id="パス_60" data-name="パス 60" d="M1122.446,1330.273c4.421,1.705,8.537,3.237,8.537,6.4,0,2.8-2,4.72-6.48,4.72-4.16,0-8-1.76-12-4.88l-5.36,7.36a28.228,28.228,0,0,0,17.04,6.32c11.68,0,17.84-6.32,17.84-14.161a11.857,11.857,0,0,0-1.394-5.81Z" fill="#fff"/>
  </g>
</svg>
